<svg width="22" height="21" viewBox="0 0 22 21" fill="none" xmlns="http://www.w3.org/2000/svg">
<g clip-path="url(#clip0)">
<path d="M16.3385 0.0858852L13.6022 0.081543C10.5281 0.081543 8.54145 2.09743 8.54145 5.21755V7.58559H5.79024C5.5525 7.58559 5.35999 7.77621 5.35999 8.01134V11.4424C5.35999 11.6775 5.55272 11.8679 5.79024 11.8679H8.54145V20.5255C8.54145 20.7606 8.73397 20.951 8.97171 20.951H12.5613C12.799 20.951 12.9915 20.7604 12.9915 20.5255V11.8679H16.2083C16.4461 11.8679 16.6386 11.6775 16.6386 11.4424L16.6399 8.01134C16.6399 7.89845 16.5945 7.79033 16.5139 7.71043C16.4333 7.63053 16.3236 7.58559 16.2094 7.58559H12.9915V5.57817C12.9915 4.61332 13.224 4.12352 14.4948 4.12352L16.3381 4.12287C16.5756 4.12287 16.7681 3.93224 16.7681 3.69733V0.511425C16.7681 0.276727 16.5758 0.0863194 16.3385 0.0858852Z" fill="#fff"/>
</g>
<defs>
<clipPath id="clip0">
<rect width="21.1009" height="20.8695" fill="white" transform="translate(0.513794 0.081543)"/>
</clipPath>
</defs>
</svg>
