<svg width="22" height="21" viewBox="0 0 22 21" fill="none" xmlns="http://www.w3.org/2000/svg">
<g clip-path="url(#clip0)">
<path d="M11.031 5.15808C7.91943 5.15808 5.40033 7.55633 5.40033 10.5128C5.40033 13.472 7.92217 15.8676 11.031 15.8676C14.1426 15.8676 16.6617 13.4693 16.6617 10.5128C16.6617 7.55372 14.1399 5.15808 11.031 5.15808ZM11.031 13.9885C9.01119 13.9885 7.37629 12.4328 7.37629 10.5128C7.37629 8.59285 9.0121 7.0372 11.031 7.0372C13.05 7.0372 14.6858 8.59285 14.6858 10.5128C14.6867 12.4328 13.0509 13.9885 11.031 13.9885Z" fill="#fff"/>
<path d="M15.5518 0.147585C13.5329 0.0580198 8.5322 0.0623676 6.51144 0.147585C4.73572 0.226715 3.1694 0.634539 1.90665 1.8354C-0.20372 3.84235 0.0660204 6.54668 0.0660204 10.5128C0.0660204 14.5719 -0.171717 17.2136 1.90665 19.1901C4.02526 21.204 6.9101 20.9405 11.0312 20.9405C15.2592 20.9405 16.7186 20.9431 18.2136 20.3927C20.2462 19.6423 21.7806 17.9145 21.9305 14.811C22.0256 12.8901 22.0201 8.13537 21.9305 6.21364C21.7495 2.55018 19.6821 0.328453 15.5518 0.147585ZM18.7476 17.8623C17.3641 19.1779 15.4449 19.0605 11.0047 19.0605C6.4328 19.0605 4.59948 19.1249 3.26175 17.8492C1.72104 16.391 1.99992 14.0493 1.99992 10.4988C1.99992 5.69451 1.48147 2.23453 6.55167 1.98758C7.71658 1.94845 8.05947 1.9354 10.9919 1.9354L11.033 1.96149C15.9057 1.96149 19.7287 1.47627 19.9582 6.29712C20.0103 7.39711 20.0222 7.72755 20.0222 10.5119C20.0213 14.8093 20.1072 16.5632 18.7476 17.8623Z" fill="#fff"/>
<path d="M16.8848 6.19803C17.6115 6.19803 18.2006 5.63781 18.2006 4.94673C18.2006 4.25566 17.6115 3.69543 16.8848 3.69543C16.1581 3.69543 15.569 4.25566 15.569 4.94673C15.569 5.63781 16.1581 6.19803 16.8848 6.19803Z" fill="#fff"/>
</g>
<defs>
<clipPath id="clip0">
<rect width="21.945" height="20.8695" fill="white" transform="translate(0.0550537 0.081543)"/>
</clipPath>
</defs>
</svg>
