<svg width="22" height="21" viewBox="0 0 22 21" fill="none" xmlns="http://www.w3.org/2000/svg">
<g clip-path="url(#clip0)">
<path d="M2.54727 0.261963C3.92969 0.261963 5.09383 1.41333 5.09383 2.78059C5.09383 4.21979 3.85692 5.33521 2.54727 5.29921C1.20123 5.33521 0.000708483 4.21979 0.000708483 2.78059C-0.0356809 1.37734 1.12849 0.261963 2.54727 0.261963Z" fill="#fff"/>
<path d="M3.96592 20.7706H1.05555C0.655395 20.7706 0.327972 20.4468 0.327972 20.051V7.45788C0.327972 7.06211 0.619005 6.73828 1.01917 6.73828H3.96588C4.36604 6.73828 4.69347 7.06211 4.69347 7.45788V20.087C4.69351 20.4468 4.36609 20.7706 3.96592 20.7706Z" fill="#fff"/>
<path d="M21.0645 11.1278C21.0645 8.46528 19.0636 6.37842 16.3716 6.37842H15.6076C14.1524 6.37842 12.7336 7.06203 11.9697 8.17744C11.715 8.42929 11.6058 8.53726 11.6058 8.53726V7.09806C11.6058 6.95414 11.3875 6.73824 11.242 6.73824H7.60408C7.45856 6.73824 7.24026 6.88216 7.24026 7.06207V20.4828C7.24026 20.6267 7.45856 20.7706 7.60408 20.7706H11.6058C11.7513 20.7706 11.9696 20.6267 11.9696 20.4828V12.711C11.9696 11.3797 12.9882 10.2643 14.3343 10.2283C15.0255 10.2283 15.6439 10.4802 16.1168 10.9479C16.5534 11.3797 16.7353 11.9914 16.7353 12.675V20.4108C16.7353 20.5547 16.9536 20.7706 17.0991 20.7706H20.7371C20.8826 20.7706 21.1009 20.5547 21.1009 20.4108V11.1278H21.0645Z" fill="#fff"/>
</g>
<defs>
<clipPath id="clip0">
<rect width="21.1009" height="20.8695" fill="white" transform="translate(0 0.081543)"/>
</clipPath>
</defs>
</svg>
