<svg width="22" height="21" viewBox="0 0 22 21" fill="none" xmlns="http://www.w3.org/2000/svg">
<g clip-path="url(#clip0)">
<path d="M21.1284 4.04547C20.3437 4.3859 19.5076 4.61155 18.6358 4.72112C19.5326 4.19155 20.2171 3.35938 20.5389 2.35635C19.7028 2.84939 18.7796 3.19765 17.7958 3.39199C17.0018 2.55591 15.8703 2.03809 14.6359 2.03809C12.2409 2.03809 10.3128 3.96069 10.3128 6.31763C10.3128 6.65676 10.3419 6.98284 10.4131 7.29328C6.81669 7.1198 3.6344 5.41503 1.49662 2.81808C1.12339 3.45851 0.904473 4.19155 0.904473 4.98068C0.904473 6.46241 1.67597 7.77588 2.82597 8.53632C2.13096 8.52327 1.44914 8.32371 0.871502 8.00936C0.871502 8.02241 0.871502 8.03936 0.871502 8.05632C0.871502 10.1354 2.37099 11.8624 4.33733 12.2602C3.98521 12.3554 3.60143 12.4011 3.20315 12.4011C2.9262 12.4011 2.64662 12.3854 2.38417 12.328C2.94467 14.0224 4.53515 15.268 6.42632 15.3085C4.95453 16.4471 3.08578 17.1332 1.06273 17.1332C0.70797 17.1332 0.367718 17.1176 0.0274658 17.0745C1.94369 18.2967 4.21468 18.9945 6.6637 18.9945C14.624 18.9945 18.9761 12.4728 18.9761 6.8198C18.9761 6.63067 18.9695 6.44807 18.9603 6.26676C19.8188 5.66416 20.5402 4.91155 21.1284 4.04547Z" fill="#fff"/>
</g>
<defs>
<clipPath id="clip0">
<rect width="21.1009" height="20.8695" fill="white" transform="translate(0.0274658 0.081543)"/>
</clipPath>
</defs>
</svg>
